<svg width="316" height="116" viewBox="0 0 316 116" fill="none" xmlns="http://www.w3.org/2000/svg">
<rect x="3" y="3" width="310" height="110" rx="13" fill="#96F8FF" stroke="#008892" stroke-width="6"/>
<path d="M302.1 20V78.2305H305.79V90.8701H301.99C300.464 90.8701 298.941 90.7037 297.425 90.374C295.799 90.0204 294.298 89.3792 292.94 88.4502C291.642 87.5618 290.576 86.424 289.74 85.0625C288.969 86.1668 288.044 87.1408 286.971 87.9824L286.972 87.9834C285.734 89.0023 284.319 89.7263 282.75 90.1592C281.3 90.6338 279.791 90.8701 278.23 90.8701C276.59 90.8701 274.983 90.5988 273.418 90.0635L273.109 89.9648C271.577 89.4537 270.196 88.6545 268.981 87.5752L268.937 87.5342C267.717 86.3822 266.693 85.0873 265.873 83.6523L265.838 83.5879C265.119 82.2159 264.532 80.7798 264.076 79.2822L264.064 79.2441L264.055 79.2051C263.672 77.7392 263.386 76.2428 263.195 74.7178L263.19 74.6768L263.187 74.6357C263.062 73.1409 263 71.6458 263 70.1504V59.3496L263.012 58.2285C263.035 57.1069 263.093 55.9855 263.187 54.8643L263.19 54.8232L263.195 54.7822C263.386 53.2572 263.672 51.7608 264.055 50.2949L264.064 50.2559L264.076 50.2178C264.532 48.7201 265.119 47.2841 265.838 45.9121L265.873 45.8477C266.69 44.4175 267.713 43.1514 268.937 42.0557C270.234 40.8301 271.733 39.9492 273.418 39.4365C274.983 38.9012 276.59 38.6299 278.23 38.6299C279.739 38.6299 281.235 38.8677 282.715 39.3301H282.716C284.299 39.7618 285.726 40.4904 286.972 41.5166C287.372 41.8462 287.75 42.1968 288.11 42.5654V20H302.1ZM282.55 51.2695C281.7 51.2696 280.893 51.4781 280.102 51.918L280.063 51.9395L280.024 51.959C279.283 52.33 278.734 52.8445 278.334 53.5244C277.851 54.3453 277.509 55.244 277.312 56.2324L277.31 56.2422L277.307 56.252C277.096 57.2523 276.99 58.2841 276.99 59.3496V70.1504C276.99 71.2159 277.097 72.2842 277.312 73.3574C277.507 74.2748 277.846 75.1453 278.334 75.9756C278.738 76.6625 279.3 77.2168 280.062 77.6484C280.855 78.0379 281.676 78.2304 282.55 78.2305C283.425 78.2305 284.247 78.037 285.04 77.6465C285.801 77.2151 286.363 76.6616 286.767 75.9756C287.258 75.1394 287.598 74.2623 287.793 73.3379C288.005 72.2713 288.11 71.2094 288.11 70.1504V59.3496C288.11 58.2841 288.004 57.2524 287.793 56.252L287.789 56.2324C287.591 55.2441 287.249 54.3452 286.767 53.5244C286.367 52.8445 285.817 52.33 285.075 51.959L285.037 51.9395L284.999 51.918C284.207 51.4779 283.4 51.2695 282.55 51.2695Z" fill="white" stroke="black" stroke-width="4"/>
<path d="M237.91 38C239.49 38 241.043 38.0945 242.568 38.2852L242.567 38.2861C244.229 38.4863 245.831 38.8855 247.369 39.4873C248.919 40.0939 250.367 40.9032 251.71 41.9102C253.07 42.9298 254.21 44.1311 255.118 45.5127C256.106 46.9239 256.804 48.5011 257.22 50.2246C257.618 51.8183 257.82 53.4218 257.82 55.0303C257.82 56.6918 257.621 58.3247 257.221 59.9248C256.795 61.626 256.048 63.1888 254.99 64.5996L254.989 64.5986C254.012 65.9212 252.805 67.0561 251.386 68.0078L251.387 68.0088C251.379 68.0139 251.372 68.0183 251.364 68.0234C251.359 68.0268 251.355 68.0308 251.35 68.0342L251.349 68.0332C250.009 68.9662 248.567 69.7036 247.027 70.2393C245.507 70.768 243.926 71.1296 242.288 71.3262L242.287 71.3252C240.769 71.5145 239.25 71.6103 237.73 71.6104H232.205C232.255 72.0121 232.321 72.4144 232.401 72.8174C232.59 73.7606 232.939 74.6251 233.451 75.4238C233.907 76.0809 234.503 76.6013 235.275 76.9912C236.155 77.4049 237.028 77.5996 237.91 77.5996C238.676 77.5996 239.444 77.5238 240.218 77.3691C240.869 77.2389 241.426 77.0074 241.911 76.6875C242.412 76.3382 242.785 75.9083 243.051 75.376L243.076 75.3262L243.104 75.2773C243.444 74.6812 243.616 74.1032 243.654 73.5273L243.779 71.6602H257.64V73.6602C257.64 75.2978 257.401 76.9043 256.924 78.4727C256.442 80.0572 255.718 81.5374 254.759 82.9072C253.785 84.2984 252.598 85.4842 251.207 86.458L251.206 86.457C249.929 87.3924 248.529 88.1582 247.009 88.7529L247.008 88.752C245.534 89.3521 243.995 89.7516 242.397 89.9521L242.398 89.9531C240.93 90.1447 239.434 90.2402 237.91 90.2402C236.11 90.2402 234.338 90.0795 232.596 89.7568C230.771 89.419 229.042 88.809 227.417 87.9287C225.79 87.0476 224.333 85.9278 223.05 84.5771L223.015 84.54L222.981 84.502C221.788 83.1093 220.792 81.5824 219.997 79.9258L219.982 79.8955L219.97 79.8652C219.247 78.2231 218.722 76.5151 218.394 74.7441L218.387 74.709L218.382 74.6729C218.128 72.957 218 71.2386 218 69.5195V58.7197L218.006 58.0752C218.034 56.5714 218.159 55.0687 218.382 53.5674L218.386 53.5371L218.392 53.5088C218.719 51.6753 219.246 49.9516 219.981 48.3467L219.989 48.3301L219.997 48.3145C220.8 46.6422 221.837 45.1312 223.106 43.7881C224.393 42.3665 225.861 41.2034 227.508 40.3115C229.133 39.4313 230.861 38.8213 232.686 38.4834C234.424 38.1615 236.166 38 237.91 38ZM238 50.6396C237.044 50.6396 236.142 50.8408 235.275 51.248C234.52 51.6295 233.884 52.1743 233.356 52.9121C232.847 53.7091 232.5 54.572 232.312 55.5127C232.097 56.5859 231.99 57.6543 231.99 58.7197V58.9697H237.73C238.587 58.9697 239.41 58.9163 240.2 58.8135C240.906 58.6757 241.52 58.4375 242.061 58.1084C242.633 57.7381 243.06 57.2847 243.373 56.7373C243.682 56.1971 243.83 55.6392 243.83 55.0303C243.83 54.3728 243.688 53.7305 243.388 53.0859C243.11 52.4916 242.736 52.0532 242.262 51.7246C241.72 51.3495 241.114 51.0956 240.422 50.9658L240.363 50.9551L240.305 50.9404C239.488 50.7362 238.721 50.6396 238 50.6396Z" fill="white" stroke="black" stroke-width="4"/>
<path d="M187.99 15V19.3398C187.99 19.8838 188.07 20.437 188.236 21.0049C188.496 21.6221 188.78 22.2408 189.088 22.8613C189.488 23.4896 189.887 24.1178 190.287 24.7461C190.682 25.3672 191.107 25.9908 191.562 26.6162L193.189 28.832L194.818 26.6162C195.273 25.9908 195.698 25.3672 196.093 24.7461C196.49 24.1225 196.857 23.5008 197.194 22.8818L197.208 22.8574L197.223 22.832C197.58 22.2196 197.851 21.6251 198.043 21.0479L198.057 21.0049L198.073 20.9619C198.291 20.3946 198.39 19.8573 198.39 19.3398V15H212.38V19.3398C212.38 20.8061 212.136 22.239 211.656 23.6309L211.657 23.6318C211.268 24.8633 210.784 26.0889 210.207 27.3066C209.637 28.5106 209.003 29.6832 208.307 30.8232L208.279 30.8662C207.604 31.9094 206.899 32.9519 206.164 33.9932L206.156 34.0039L206.148 34.0156L201.512 40.3994L206.148 46.7852L206.164 46.8066C206.9 47.8493 207.605 48.9218 208.279 50.0234L208.542 50.4375C209.148 51.4103 209.703 52.4297 210.207 53.4941C210.785 54.7139 211.268 55.9666 211.655 57.252C212.14 58.5965 212.38 60.0029 212.38 61.46V65.7998H198.39V61.46C198.39 60.9441 198.292 60.4557 198.094 59.9795L198.057 59.8906L198.028 59.7979C197.839 59.1818 197.582 58.6264 197.263 58.124L197.207 58.0371L197.161 57.9443C196.831 57.2841 196.475 56.654 196.093 56.0537C195.696 55.4302 195.269 54.8046 194.812 54.1768V54.1758L193.189 51.9678L191.566 54.1758L191.567 54.1768C191.111 54.8046 190.684 55.4302 190.287 56.0537C189.889 56.6799 189.489 57.3361 189.088 58.0225C188.784 58.5813 188.498 59.2006 188.233 59.8838C188.072 60.3817 187.99 60.9043 187.99 61.46V65.7998H174V61.46C174 60.0067 174.208 58.6029 174.633 57.2578L174.652 57.1992C175.095 55.9333 175.602 54.6983 176.173 53.4941C176.749 52.2777 177.391 51.12 178.101 50.0234C178.775 48.9218 179.48 47.8493 180.216 46.8066L180.231 46.7852L184.867 40.3994L180.231 34.0156L180.224 34.0039L180.216 33.9932C179.481 32.9519 178.776 31.9093 178.101 30.8662L178.073 30.8232C177.377 29.6832 176.743 28.5107 176.173 27.3066C175.608 26.1149 175.104 24.9196 174.663 23.7217L174.642 23.6641L174.624 23.6045C174.208 22.2171 174 20.7933 174 19.3398V15H187.99Z" fill="#00FFB2" stroke="black" stroke-width="4"/>
<path d="M177.99 45V49.3398C177.99 49.8838 178.07 50.437 178.236 51.0049C178.496 51.6221 178.78 52.2408 179.088 52.8613C179.488 53.4896 179.887 54.1178 180.287 54.7461C180.682 55.3672 181.107 55.9908 181.562 56.6162L183.189 58.832L184.818 56.6162C185.273 55.9908 185.698 55.3672 186.093 54.7461C186.49 54.1225 186.857 53.5008 187.194 52.8818L187.208 52.8574L187.223 52.832C187.58 52.2196 187.851 51.6251 188.043 51.0479L188.057 51.0049L188.073 50.9619C188.291 50.3946 188.39 49.8573 188.39 49.3398V45H202.38V49.3398C202.38 50.8061 202.136 52.239 201.656 53.6309L201.657 53.6318C201.268 54.8632 200.784 56.0889 200.207 57.3066C199.637 58.5106 199.003 59.6832 198.307 60.8232L198.279 60.8662C197.604 61.9094 196.899 62.9519 196.164 63.9932L196.156 64.0039L196.148 64.0156L191.512 70.3994L196.148 76.7852L196.164 76.8066C196.9 77.8493 197.605 78.9218 198.279 80.0234L198.542 80.4375C199.148 81.4103 199.703 82.4297 200.207 83.4941C200.785 84.7139 201.268 85.9666 201.655 87.252C202.14 88.5965 202.38 90.0029 202.38 91.46V95.7998H188.39V91.46C188.39 90.9441 188.292 90.4557 188.094 89.9795L188.057 89.8906L188.028 89.7979C187.839 89.1818 187.582 88.6264 187.263 88.124L187.207 88.0371L187.161 87.9443C186.831 87.2841 186.475 86.654 186.093 86.0537C185.696 85.4302 185.269 84.8046 184.812 84.1768V84.1758L183.189 81.9678L181.566 84.1758L181.567 84.1768C181.111 84.8046 180.684 85.4302 180.287 86.0537C179.889 86.6799 179.489 87.3361 179.088 88.0225C178.784 88.5813 178.498 89.2006 178.233 89.8838C178.072 90.3817 177.99 90.9043 177.99 91.46V95.7998H164V91.46C164 90.0067 164.208 88.6029 164.633 87.2578L164.652 87.1992C165.095 85.9333 165.602 84.6983 166.173 83.4941C166.749 82.2777 167.391 81.12 168.101 80.0234C168.775 78.9218 169.48 77.8493 170.216 76.8066L170.231 76.7852L174.867 70.3994L170.231 64.0156L170.224 64.0039L170.216 63.9932C169.481 62.9519 168.776 61.9093 168.101 60.8662L168.073 60.8232C167.377 59.6832 166.743 58.5107 166.173 57.3066C165.608 56.1149 165.104 54.9196 164.663 53.7217L164.642 53.6641L164.624 53.6045C164.208 52.2171 164 50.7933 164 49.3398V45H177.99Z" fill="#F700FF" stroke="black" stroke-width="4"/>
<path d="M148.79 39.7002V72.4805C148.79 73.246 148.867 74.0148 149.021 74.7881C149.149 75.423 149.375 76.0116 149.702 76.5645C150.02 76.9666 150.412 77.2686 150.908 77.4814C151.503 77.7364 152.106 77.8604 152.73 77.8604H160.31V90.5H152.73C151.179 90.5 149.628 90.3711 148.081 90.1133L148.067 90.1104C146.514 89.8402 145.001 89.369 143.532 88.7012L143.481 88.6777L143.432 88.6514C142.003 87.9027 140.684 86.9545 139.477 85.8145L139.456 85.7939L139.436 85.7744C138.275 84.6135 137.314 83.3098 136.559 81.8682L136.532 81.8184L136.509 81.7676C135.836 80.2877 135.366 78.7398 135.098 77.1289C134.84 75.5819 134.71 74.032 134.71 72.4805V52.3398H124V39.7002H148.79ZM141.75 19C142.922 19 144.083 19.1836 145.227 19.541C146.471 19.9298 147.569 20.5695 148.475 21.4756C149.381 22.3816 150.02 23.4797 150.409 24.7236C150.767 25.8674 150.95 27.0285 150.95 28.2002C150.95 29.3719 150.767 30.533 150.409 31.6768C150.02 32.9205 149.38 34.0179 148.475 34.9238C147.569 35.8299 146.471 36.4706 145.227 36.8594C144.083 37.2168 142.922 37.4004 141.75 37.4004C140.578 37.4004 139.417 37.2168 138.273 36.8594C137.029 36.4706 135.931 35.8299 135.025 34.9238C134.12 34.0179 133.48 32.9205 133.091 31.6768C132.733 30.533 132.55 29.3719 132.55 28.2002C132.55 27.0285 132.733 25.8674 133.091 24.7236C133.48 23.4797 134.119 22.3816 135.025 21.4756C135.931 20.5695 137.029 19.9298 138.273 19.541C139.417 19.1836 140.578 19 141.75 19Z" fill="white" stroke="black" stroke-width="4"/>
<path d="M115.122 22.5381L114.772 74.6668C114.767 75.4325 114.838 76.2016 114.988 76.976C115.111 77.6119 115.333 78.2027 115.657 78.7578C115.972 79.162 116.361 79.4668 116.856 79.6829C117.45 79.9418 118.051 80.0689 118.676 80.0731L126.255 80.124L126.17 92.7644L118.591 92.7134C117.04 92.703 115.49 92.5627 113.944 92.2945L113.931 92.2924C112.38 92.0119 110.87 91.5295 109.405 90.8518L109.355 90.8281L109.305 90.8023C107.868 90.0375 106.571 89.0669 105.418 87.8982C104.265 86.7295 103.313 85.4194 102.568 83.9727L102.542 83.9237L102.519 83.8728C101.857 82.3883 101.396 80.8365 101.139 79.2237C100.891 77.675 100.772 76.1243 100.782 74.5728L101.048 35.0834L90.248 35.0109L90.3329 22.3715L115.122 22.5381Z" fill="white" stroke="black" stroke-width="4"/>
<path d="M76.9102 38C78.4903 38 80.0434 38.0945 81.5684 38.2852L81.5674 38.2861C83.2289 38.4863 84.8313 38.8855 86.3691 39.4873C87.9193 40.0939 89.3673 40.9032 90.71 41.9102C92.0695 42.9298 93.2103 44.1311 94.1182 45.5127C95.106 46.9239 95.8038 48.5011 96.2197 50.2246C96.6182 51.8184 96.8203 53.4218 96.8203 55.0303C96.8203 56.6918 96.6207 58.3247 96.2207 59.9248C95.7954 61.6261 95.0483 63.1888 93.9902 64.5996L93.9893 64.5986C93.0123 65.9212 91.8048 67.0561 90.3857 68.0078L90.3867 68.0088C90.3794 68.0139 90.3716 68.0183 90.3643 68.0234C90.3592 68.0268 90.3546 68.0308 90.3496 68.0342L90.3486 68.0332C89.0086 68.9662 87.5675 69.7035 86.0273 70.2393C84.5071 70.768 82.9259 71.1296 81.2881 71.3262L81.2871 71.3252C79.7692 71.5145 78.2503 71.6103 76.7305 71.6104H71.2051C71.2553 72.0121 71.3208 72.4144 71.4014 72.8174C71.59 73.7606 71.9394 74.6251 72.4512 75.4238C72.9071 76.0809 73.5028 76.6013 74.2754 76.9912C75.1553 77.4049 76.0278 77.5996 76.9102 77.5996C77.6758 77.5996 78.4444 77.5238 79.2178 77.3691C79.8689 77.2389 80.4259 77.0074 80.9111 76.6875C81.4123 76.3382 81.7845 75.9083 82.0508 75.376L82.0762 75.3262L82.1035 75.2773C82.4441 74.6812 82.6158 74.1031 82.6543 73.5273L82.7793 71.6602H96.6396V73.6602C96.6396 75.2978 96.4012 76.9043 95.9238 78.4727C95.4415 80.0572 94.7176 81.5374 93.7588 82.9072C92.785 84.2984 91.5982 85.4842 90.207 86.458L90.2061 86.457C88.9293 87.3924 87.5286 88.1582 86.0088 88.7529L86.0078 88.752C84.5336 89.3521 82.9953 89.7516 81.3975 89.9521L81.3984 89.9531C79.9299 90.1447 78.4335 90.2402 76.9102 90.2402C75.1104 90.2402 73.3382 90.0795 71.5957 89.7568C69.7712 89.419 68.0421 88.809 66.417 87.9287C64.7903 87.0476 63.3329 85.9278 62.0498 84.5771L62.0146 84.54L61.9814 84.502C60.7878 83.1093 59.7923 81.5824 58.9971 79.9258L58.9824 79.8955L58.9697 79.8652C58.2472 78.2231 57.7215 76.5151 57.3936 74.7441L57.3867 74.709L57.3818 74.6729C57.1276 72.9569 57 71.2386 57 69.5195V58.7197L57.0059 58.0752C57.0337 56.5714 57.1594 55.0687 57.3818 53.5674L57.3857 53.5371L57.3916 53.5088C57.719 51.6753 58.2459 49.9516 58.9814 48.3467L58.9893 48.3301L58.9971 48.3145C59.7998 46.6422 60.8374 45.1312 62.1064 43.7881C63.3926 42.3665 64.8612 41.2034 66.5078 40.3115C68.1328 39.4313 69.8612 38.8213 71.6855 38.4834C73.4236 38.1615 75.1659 38 76.9102 38ZM77 50.6396C76.0436 50.6396 75.1421 50.8408 74.2754 51.248C73.5198 51.6295 72.8841 52.1744 72.3564 52.9121C71.8469 53.7091 71.4997 54.572 71.3115 55.5127C71.0969 56.5859 70.9903 57.6542 70.9902 58.7197V58.9697H76.7305C77.5869 58.9697 78.4097 58.9163 79.2002 58.8135C79.9059 58.6757 80.5201 58.4375 81.0605 58.1084C81.6325 57.7381 82.0602 57.2847 82.373 56.7373C82.6817 56.1971 82.83 55.6392 82.8301 55.0303C82.8301 54.3728 82.6884 53.7305 82.3877 53.0859C82.1103 52.4915 81.7362 52.0532 81.2617 51.7246C80.7199 51.3495 80.1137 51.0956 79.4219 50.9658L79.3633 50.9551L79.3047 50.9404C78.4878 50.7362 77.7211 50.6396 77 50.6396Z" fill="white" stroke="black" stroke-width="4"/>
<path d="M29.2273 18.6181L27.7006 46.4767L38.0844 47.0457L39.6111 19.1871L53.5804 19.9526L49.7419 89.9979L35.7726 89.2324L37.3928 59.6664L27.009 59.0974L25.3888 88.6634L11.4195 87.8978L15.258 17.8525L29.2273 18.6181Z" fill="white" stroke="black" stroke-width="4"/>
</svg>
