<svg width="316" height="116" viewBox="0 0 316 116" fill="none" xmlns="http://www.w3.org/2000/svg">
<rect x="3" y="3" width="310" height="110" rx="13" fill="#96F8FF" stroke="#008892" stroke-width="6"/>
<path d="M299.1 19V77.2305H302.79V89.8701H298.99C297.464 89.8701 295.941 89.7037 294.425 89.374C292.799 89.0204 291.298 88.3792 289.94 87.4502C288.642 86.5618 287.576 85.424 286.74 84.0625C285.969 85.1668 285.044 86.1408 283.971 86.9824L283.972 86.9834C282.734 88.0023 281.319 88.7263 279.75 89.1592C278.3 89.6338 276.791 89.8701 275.23 89.8701C273.59 89.8701 271.983 89.5988 270.418 89.0635L270.109 88.9648C268.577 88.4537 267.196 87.6545 265.981 86.5752L265.937 86.5342C264.717 85.3822 263.693 84.0873 262.873 82.6523L262.838 82.5879C262.119 81.2159 261.532 79.7798 261.076 78.2822L261.064 78.2441L261.055 78.2051C260.672 76.7392 260.386 75.2428 260.195 73.7178L260.19 73.6768L260.187 73.6357C260.062 72.1409 260 70.6458 260 69.1504V58.3496L260.012 57.2285C260.035 56.1069 260.093 54.9855 260.187 53.8643L260.19 53.8232L260.195 53.7822C260.386 52.2572 260.672 50.7608 261.055 49.2949L261.064 49.2559L261.076 49.2178C261.532 47.7202 262.119 46.2841 262.838 44.9121L262.873 44.8477C263.69 43.4175 264.713 42.1514 265.937 41.0557C267.234 39.8301 268.733 38.9492 270.418 38.4365C271.983 37.9012 273.59 37.6299 275.23 37.6299C276.739 37.6299 278.235 37.8677 279.715 38.3301H279.716C281.299 38.7618 282.726 39.4904 283.972 40.5166C284.372 40.8462 284.75 41.1968 285.11 41.5654V19H299.1ZM279.55 50.2695C278.7 50.2696 277.893 50.4781 277.102 50.918L277.063 50.9395L277.024 50.959C276.283 51.33 275.734 51.8445 275.334 52.5244C274.851 53.3453 274.509 54.244 274.312 55.2324L274.31 55.2422L274.307 55.252C274.096 56.2523 273.99 57.2841 273.99 58.3496V69.1504C273.99 70.2159 274.097 71.2842 274.312 72.3574C274.507 73.2748 274.846 74.1453 275.334 74.9756C275.738 75.6625 276.3 76.2168 277.062 76.6484C277.855 77.0379 278.676 77.2304 279.55 77.2305C280.425 77.2305 281.247 77.037 282.04 76.6465C282.801 76.2151 283.363 75.6616 283.767 74.9756C284.258 74.1394 284.598 73.2623 284.793 72.3379C285.005 71.2713 285.11 70.2094 285.11 69.1504V58.3496C285.11 57.2841 285.004 56.2524 284.793 55.252L284.789 55.2324C284.591 54.2441 284.249 53.3452 283.767 52.5244C283.367 51.8445 282.817 51.33 282.075 50.959L282.037 50.9395L281.999 50.918C281.207 50.4779 280.4 50.2695 279.55 50.2695Z" fill="white" stroke="black" stroke-width="4"/>
<path d="M231.91 35C233.49 35 235.043 35.0945 236.568 35.2852L236.567 35.2861C238.229 35.4863 239.831 35.8855 241.369 36.4873C242.919 37.0939 244.367 37.9032 245.71 38.9102C247.07 39.9298 248.21 41.1311 249.118 42.5127C250.106 43.9239 250.804 45.5011 251.22 47.2246C251.618 48.8183 251.82 50.4218 251.82 52.0303C251.82 53.6918 251.621 55.3247 251.221 56.9248C250.795 58.626 250.048 60.1888 248.99 61.5996L248.989 61.5986C248.012 62.9212 246.805 64.0561 245.386 65.0078L245.387 65.0088C245.379 65.0139 245.372 65.0183 245.364 65.0234C245.359 65.0268 245.355 65.0308 245.35 65.0342L245.349 65.0332C244.009 65.9662 242.567 66.7036 241.027 67.2393C239.507 67.768 237.926 68.1296 236.288 68.3262L236.287 68.3252C234.769 68.5145 233.25 68.6103 231.73 68.6104H226.205C226.255 69.0121 226.321 69.4144 226.401 69.8174C226.59 70.7606 226.939 71.6251 227.451 72.4238C227.907 73.0809 228.503 73.6013 229.275 73.9912C230.155 74.4049 231.028 74.5996 231.91 74.5996C232.676 74.5996 233.444 74.5238 234.218 74.3691C234.869 74.2389 235.426 74.0074 235.911 73.6875C236.412 73.3382 236.785 72.9083 237.051 72.376L237.076 72.3262L237.104 72.2773C237.444 71.6812 237.616 71.1032 237.654 70.5273L237.779 68.6602H251.64V70.6602C251.64 72.2978 251.401 73.9043 250.924 75.4727C250.442 77.0572 249.718 78.5374 248.759 79.9072C247.785 81.2984 246.598 82.4842 245.207 83.458L245.206 83.457C243.929 84.3924 242.529 85.1582 241.009 85.7529L241.008 85.752C239.534 86.3521 237.995 86.7516 236.397 86.9521L236.398 86.9531C234.93 87.1447 233.434 87.2402 231.91 87.2402C230.11 87.2402 228.338 87.0795 226.596 86.7568C224.771 86.419 223.042 85.809 221.417 84.9287C219.79 84.0475 218.333 82.9278 217.05 81.5771L217.015 81.54L216.981 81.502C215.788 80.1093 214.792 78.5824 213.997 76.9258L213.982 76.8955L213.97 76.8652C213.247 75.2231 212.722 73.5151 212.394 71.7441L212.387 71.709L212.382 71.6729C212.128 69.957 212 68.2386 212 66.5195V55.7197L212.006 55.0752C212.034 53.5714 212.159 52.0687 212.382 50.5674L212.386 50.5371L212.392 50.5088C212.719 48.6753 213.246 46.9516 213.981 45.3467L213.989 45.3301L213.997 45.3145C214.8 43.6422 215.837 42.1312 217.106 40.7881C218.393 39.3665 219.861 38.2034 221.508 37.3115C223.133 36.4313 224.861 35.8213 226.686 35.4834C228.424 35.1615 230.166 35 231.91 35ZM232 47.6396C231.044 47.6396 230.142 47.8408 229.275 48.248C228.52 48.6295 227.884 49.1743 227.356 49.9121C226.847 50.7091 226.5 51.572 226.312 52.5127C226.097 53.5859 225.99 54.6543 225.99 55.7197V55.9697H231.73C232.587 55.9697 233.41 55.9163 234.2 55.8135C234.906 55.6757 235.52 55.4375 236.061 55.1084C236.633 54.7381 237.06 54.2847 237.373 53.7373C237.682 53.1971 237.83 52.6392 237.83 52.0303C237.83 51.3728 237.688 50.7305 237.388 50.0859C237.11 49.4916 236.736 49.0532 236.262 48.7246C235.72 48.3495 235.114 48.0956 234.422 47.9658L234.363 47.9551L234.305 47.9404C233.488 47.7362 232.721 47.6396 232 47.6396Z" fill="white" stroke="black" stroke-width="4"/>
<path d="M184.99 12V16.3398C184.99 16.8838 185.07 17.437 185.236 18.0049C185.496 18.6221 185.78 19.2408 186.088 19.8613C186.488 20.4896 186.887 21.1178 187.287 21.7461C187.682 22.3672 188.107 22.9908 188.562 23.6162L190.189 25.832L191.818 23.6162C192.273 22.9908 192.698 22.3672 193.093 21.7461C193.49 21.1225 193.857 20.5008 194.194 19.8818L194.208 19.8574L194.223 19.832C194.58 19.2196 194.851 18.6251 195.043 18.0479L195.057 18.0049L195.073 17.9619C195.291 17.3946 195.39 16.8573 195.39 16.3398V12H209.38V16.3398C209.38 17.8061 209.136 19.239 208.656 20.6309L208.657 20.6318C208.268 21.8633 207.784 23.0889 207.207 24.3066C206.637 25.5106 206.003 26.6832 205.307 27.8232L205.279 27.8662C204.604 28.9094 203.899 29.9519 203.164 30.9932L203.156 31.0039L203.148 31.0156L198.512 37.3994L203.148 43.7852L203.164 43.8066C203.9 44.8493 204.605 45.9218 205.279 47.0234L205.542 47.4375C206.148 48.4103 206.703 49.4297 207.207 50.4941C207.785 51.7139 208.268 52.9666 208.655 54.252C209.14 55.5965 209.38 57.0029 209.38 58.46V62.7998H195.39V58.46C195.39 57.9441 195.292 57.4557 195.094 56.9795L195.057 56.8906L195.028 56.7979C194.839 56.1818 194.582 55.6264 194.263 55.124L194.207 55.0371L194.161 54.9443C193.831 54.2841 193.475 53.654 193.093 53.0537C192.696 52.4302 192.269 51.8046 191.812 51.1768V51.1758L190.189 48.9678L188.566 51.1758L188.567 51.1768C188.111 51.8046 187.684 52.4302 187.287 53.0537C186.889 53.6799 186.489 54.3361 186.088 55.0225C185.784 55.5813 185.498 56.2006 185.233 56.8838C185.072 57.3817 184.99 57.9043 184.99 58.46V62.7998H171V58.46C171 57.0067 171.208 55.6029 171.633 54.2578L171.652 54.1992C172.095 52.9333 172.602 51.6983 173.173 50.4941C173.749 49.2777 174.391 48.12 175.101 47.0234C175.775 45.9218 176.48 44.8493 177.216 43.8066L177.231 43.7852L181.867 37.3994L177.231 31.0156L177.224 31.0039L177.216 30.9932C176.481 29.9519 175.776 28.9093 175.101 27.8662L175.073 27.8232C174.377 26.6832 173.743 25.5107 173.173 24.3066C172.608 23.1149 172.104 21.9196 171.663 20.7217L171.642 20.6641L171.624 20.6045C171.208 19.2171 171 17.7933 171 16.3398V12H184.99Z" fill="#00FF37" stroke="black" stroke-width="4"/>
<path d="M184.99 56V60.3398C184.99 60.8838 185.07 61.437 185.236 62.0049C185.496 62.6221 185.78 63.2408 186.088 63.8613C186.488 64.4896 186.887 65.1178 187.287 65.7461C187.682 66.3672 188.107 66.9908 188.562 67.6162L190.189 69.832L191.818 67.6162C192.273 66.9908 192.698 66.3672 193.093 65.7461C193.49 65.1225 193.857 64.5008 194.194 63.8818L194.208 63.8574L194.223 63.832C194.58 63.2196 194.851 62.6251 195.043 62.0479L195.057 62.0049L195.073 61.9619C195.291 61.3946 195.39 60.8573 195.39 60.3398V56H209.38V60.3398C209.38 61.8061 209.136 63.239 208.656 64.6309L208.657 64.6318C208.268 65.8632 207.784 67.0889 207.207 68.3066C206.637 69.5106 206.003 70.6832 205.307 71.8232L205.279 71.8662C204.604 72.9094 203.899 73.9519 203.164 74.9932L203.156 75.0039L203.148 75.0156L198.512 81.3994L203.148 87.7852L203.164 87.8066C203.9 88.8493 204.605 89.9218 205.279 91.0234L205.542 91.4375C206.148 92.4103 206.703 93.4297 207.207 94.4941C207.785 95.7139 208.268 96.9666 208.655 98.252C209.14 99.5965 209.38 101.003 209.38 102.46V106.8H195.39V102.46C195.39 101.944 195.292 101.456 195.094 100.979L195.057 100.891L195.028 100.798C194.839 100.182 194.582 99.6264 194.263 99.124L194.207 99.0371L194.161 98.9443C193.831 98.2841 193.475 97.654 193.093 97.0537C192.696 96.4302 192.269 95.8046 191.812 95.1768V95.1758L190.189 92.9678L188.566 95.1758L188.567 95.1768C188.111 95.8046 187.684 96.4302 187.287 97.0537C186.889 97.6799 186.489 98.3361 186.088 99.0225C185.784 99.5813 185.498 100.201 185.233 100.884C185.072 101.382 184.99 101.904 184.99 102.46V106.8H171V102.46C171 101.007 171.208 99.6029 171.633 98.2578L171.652 98.1992C172.095 96.9333 172.602 95.6983 173.173 94.4941C173.749 93.2777 174.391 92.12 175.101 91.0234C175.775 89.9218 176.48 88.8493 177.216 87.8066L177.231 87.7852L181.867 81.3994L177.231 75.0156L177.224 75.0039L177.216 74.9932C176.481 73.9519 175.776 72.9093 175.101 71.8662L175.073 71.8232C174.377 70.6832 173.743 69.5107 173.173 68.3066C172.608 67.1149 172.104 65.9196 171.663 64.7217L171.642 64.6641L171.624 64.6045C171.208 63.2171 171 61.7933 171 60.3398V56H184.99Z" fill="#BF00FF" stroke="black" stroke-width="4"/>
<path d="M157.79 37.7002V70.4805C157.79 71.246 157.867 72.0148 158.021 72.7881C158.148 73.423 158.375 74.0116 158.702 74.5645C159.02 74.9666 159.412 75.2686 159.908 75.4814C160.503 75.7364 161.106 75.8604 161.73 75.8604H169.31V88.5H161.73C160.179 88.5 158.628 88.3711 157.081 88.1133L157.067 88.1104C155.514 87.8402 154.001 87.369 152.532 86.7012L152.481 86.6777L152.432 86.6514C151.002 85.9027 149.684 84.9545 148.477 83.8145L148.456 83.7939L148.436 83.7744C147.275 82.6135 146.314 81.3098 145.559 79.8682L145.532 79.8184L145.509 79.7676C144.836 78.2877 144.366 76.7398 144.098 75.1289C143.84 73.5819 143.71 72.032 143.71 70.4805V50.3398H133V37.7002H157.79ZM150.75 17C151.922 17 153.083 17.1836 154.227 17.541C155.471 17.9298 156.569 18.5695 157.475 19.4756C158.381 20.3816 159.02 21.4797 159.409 22.7236C159.767 23.8674 159.95 25.0285 159.95 26.2002C159.95 27.3719 159.767 28.533 159.409 29.6768C159.02 30.9205 158.38 32.0179 157.475 32.9238C156.569 33.8299 155.471 34.4706 154.227 34.8594C153.083 35.2168 151.922 35.4004 150.75 35.4004C149.578 35.4004 148.417 35.2168 147.273 34.8594C146.029 34.4706 144.931 33.8299 144.025 32.9238C143.12 32.0179 142.479 30.9205 142.091 29.6768C141.733 28.533 141.55 27.3719 141.55 26.2002C141.55 25.0285 141.733 23.8674 142.091 22.7236C142.48 21.4797 143.119 20.3816 144.025 19.4756C144.931 18.5695 146.029 17.9298 147.273 17.541C148.417 17.1836 149.578 17 150.75 17Z" fill="white" stroke="black" stroke-width="4"/>
<path d="M115.122 22.5381L114.772 74.6668C114.767 75.4325 114.838 76.2016 114.988 76.976C115.111 77.6119 115.333 78.2027 115.657 78.7578C115.972 79.162 116.361 79.4668 116.856 79.6829C117.45 79.9418 118.051 80.0689 118.676 80.0731L126.255 80.124L126.17 92.7644L118.591 92.7134C117.04 92.703 115.49 92.5627 113.944 92.2945L113.931 92.2924C112.38 92.0119 110.87 91.5295 109.405 90.8518L109.355 90.8281L109.305 90.8023C107.868 90.0375 106.571 89.0669 105.418 87.8982C104.265 86.7295 103.313 85.4194 102.568 83.9727L102.542 83.9237L102.519 83.8728C101.857 82.3883 101.396 80.8365 101.139 79.2237C100.891 77.675 100.772 76.1243 100.782 74.5728L101.048 35.0834L90.248 35.0109L90.3329 22.3715L115.122 22.5381Z" fill="white" stroke="black" stroke-width="4"/>
<path d="M76.9102 38C78.4903 38 80.0434 38.0945 81.5684 38.2852L81.5674 38.2861C83.2289 38.4863 84.8313 38.8855 86.3691 39.4873C87.9193 40.0939 89.3673 40.9032 90.71 41.9102C92.0695 42.9298 93.2103 44.1311 94.1182 45.5127C95.106 46.9239 95.8038 48.5011 96.2197 50.2246C96.6182 51.8184 96.8203 53.4218 96.8203 55.0303C96.8203 56.6918 96.6207 58.3247 96.2207 59.9248C95.7954 61.6261 95.0483 63.1888 93.9902 64.5996L93.9893 64.5986C93.0123 65.9212 91.8048 67.0561 90.3857 68.0078L90.3867 68.0088C90.3794 68.0139 90.3716 68.0183 90.3643 68.0234C90.3592 68.0268 90.3546 68.0308 90.3496 68.0342L90.3486 68.0332C89.0086 68.9662 87.5675 69.7035 86.0273 70.2393C84.5071 70.768 82.9259 71.1296 81.2881 71.3262L81.2871 71.3252C79.7692 71.5145 78.2503 71.6103 76.7305 71.6104H71.2051C71.2553 72.0121 71.3208 72.4144 71.4014 72.8174C71.59 73.7606 71.9394 74.6251 72.4512 75.4238C72.9071 76.0809 73.5028 76.6013 74.2754 76.9912C75.1553 77.4049 76.0278 77.5996 76.9102 77.5996C77.6758 77.5996 78.4444 77.5238 79.2178 77.3691C79.8689 77.2389 80.4259 77.0074 80.9111 76.6875C81.4123 76.3382 81.7845 75.9083 82.0508 75.376L82.0762 75.3262L82.1035 75.2773C82.4441 74.6812 82.6158 74.1031 82.6543 73.5273L82.7793 71.6602H96.6396V73.6602C96.6396 75.2978 96.4012 76.9043 95.9238 78.4727C95.4415 80.0572 94.7176 81.5374 93.7588 82.9072C92.785 84.2984 91.5982 85.4842 90.207 86.458L90.2061 86.457C88.9293 87.3924 87.5286 88.1582 86.0088 88.7529L86.0078 88.752C84.5336 89.3521 82.9953 89.7516 81.3975 89.9521L81.3984 89.9531C79.9299 90.1447 78.4335 90.2402 76.9102 90.2402C75.1104 90.2402 73.3382 90.0795 71.5957 89.7568C69.7712 89.419 68.0421 88.809 66.417 87.9287C64.7903 87.0476 63.3329 85.9278 62.0498 84.5771L62.0146 84.54L61.9814 84.502C60.7878 83.1093 59.7923 81.5824 58.9971 79.9258L58.9824 79.8955L58.9697 79.8652C58.2472 78.2231 57.7215 76.5151 57.3936 74.7441L57.3867 74.709L57.3818 74.6729C57.1276 72.9569 57 71.2386 57 69.5195V58.7197L57.0059 58.0752C57.0337 56.5714 57.1594 55.0687 57.3818 53.5674L57.3857 53.5371L57.3916 53.5088C57.719 51.6753 58.2459 49.9516 58.9814 48.3467L58.9893 48.3301L58.9971 48.3145C59.7998 46.6422 60.8374 45.1312 62.1064 43.7881C63.3926 42.3665 64.8612 41.2034 66.5078 40.3115C68.1328 39.4313 69.8612 38.8213 71.6855 38.4834C73.4236 38.1615 75.1659 38 76.9102 38ZM77 50.6396C76.0436 50.6396 75.1421 50.8408 74.2754 51.248C73.5198 51.6295 72.8841 52.1744 72.3564 52.9121C71.8469 53.7091 71.4997 54.572 71.3115 55.5127C71.0969 56.5859 70.9903 57.6542 70.9902 58.7197V58.9697H76.7305C77.5869 58.9697 78.4097 58.9163 79.2002 58.8135C79.9059 58.6757 80.5201 58.4375 81.0605 58.1084C81.6325 57.7381 82.0602 57.2847 82.373 56.7373C82.6817 56.1971 82.83 55.6392 82.8301 55.0303C82.8301 54.3728 82.6884 53.7305 82.3877 53.0859C82.1103 52.4915 81.7362 52.0532 81.2617 51.7246C80.7199 51.3495 80.1137 51.0956 79.4219 50.9658L79.3633 50.9551L79.3047 50.9404C78.4878 50.7362 77.7211 50.6396 77 50.6396Z" fill="white" stroke="black" stroke-width="4"/>
<path d="M29.2273 18.6181L27.7006 46.4767L38.0844 47.0457L39.6111 19.1871L53.5804 19.9526L49.7419 89.9979L35.7726 89.2324L37.3928 59.6664L27.009 59.0974L25.3888 88.6634L11.4195 87.8978L15.258 17.8525L29.2273 18.6181Z" fill="white" stroke="black" stroke-width="4"/>
</svg>
